<svg xmlns="http://www.w3.org/2000/svg" fill-rule="evenodd" stroke-linejoin="round" stroke-miterlimit="2" clip-rule="evenodd" viewBox="0 0 32 32"><path d="M31,8c0,-0.796 -0.316,-1.559 -0.879,-2.121c-0.562,-0.563 -1.325,-0.879 -2.121,-0.879c-5.154,0 -18.846,0 -24,0c-0.796,-0 -1.559,0.316 -2.121,0.879c-0.563,0.562 -0.879,1.325 -0.879,2.121c0,3.832 0,12.168 -0,16c-0,0.796 0.316,1.559 0.879,2.121c0.562,0.563 1.325,0.879 2.121,0.879c5.154,0 18.846,0 24,-0c0.796,0 1.559,-0.316 2.121,-0.879c0.563,-0.562 0.879,-1.325 0.879,-2.121l-0,-16Zm-2,0l-0,16c0,0.265 -0.105,0.52 -0.293,0.707c-0.187,0.188 -0.442,0.293 -0.707,0.293l-24,0c-0.265,0 -0.52,-0.105 -0.707,-0.293c-0.188,-0.187 -0.293,-0.442 -0.293,-0.707l0,-16c-0,-0.265 0.105,-0.52 0.293,-0.707c0.187,-0.188 0.442,-0.293 0.707,-0.293l24,-0c0.265,-0 0.52,0.105 0.707,0.293c0.188,0.187 0.293,0.442 0.293,0.707Z"/><path d="M16,9c-3.863,0 -7,3.137 -7,7c0,3.863 3.137,7 7,7c3.863,-0 7,-3.137 7,-7c0,-3.863 -3.137,-7 -7,-7Zm0,2c2.76,0 5,2.24 5,5c0,2.76 -2.24,5 -5,5c-2.76,-0 -5,-2.24 -5,-5c0,-2.76 2.24,-5 5,-5Z"/><circle cx="6" cy="10" r="1"/></svg>